<mxfile host="app.diagrams.net" modified="2021-03-04T11:03:58.819Z" agent="5.0 (Windows NT 10.0; Win64; x64) AppleWebKit/537.36 (KHTML, like Gecko) Chrome/88.0.4324.190 Safari/537.36" etag="qw13a-SK01M1ak37tnMc" version="14.4.4" type="github">
  <diagram id="C5RBs43oDa-KdzZeNtuy" name="Page-1">
    <mxGraphModel dx="1038" dy="548" grid="1" gridSize="10" guides="1" tooltips="1" connect="1" arrows="1" fold="1" page="1" pageScale="1" pageWidth="827" pageHeight="1169" background="#283618" math="0" shadow="0">
      <root>
        <mxCell id="WIyWlLk6GJQsqaUBKTNV-0" />
        <mxCell id="WIyWlLk6GJQsqaUBKTNV-1" parent="WIyWlLk6GJQsqaUBKTNV-0" />
        <mxCell id="W7C4MJzanJalnLyDJ3va-2" style="edgeStyle=orthogonalEdgeStyle;curved=0;rounded=1;sketch=0;orthogonalLoop=1;jettySize=auto;html=1;exitX=1;exitY=0.5;exitDx=0;exitDy=0;strokeColor=#DDA15E;fillColor=#BC6C25;fontColor=#FEFAE0;labelBackgroundColor=#283618;" edge="1" parent="WIyWlLk6GJQsqaUBKTNV-1" source="W7C4MJzanJalnLyDJ3va-0" target="W7C4MJzanJalnLyDJ3va-1">
          <mxGeometry relative="1" as="geometry" />
        </mxCell>
        <mxCell id="W7C4MJzanJalnLyDJ3va-0" value="&lt;font style=&quot;font-size: 18px&quot;&gt;Begin&lt;/font&gt;" style="ellipse;whiteSpace=wrap;html=1;rounded=0;sketch=0;strokeColor=#DDA15E;fillColor=#BC6C25;fontColor=#FEFAE0;" vertex="1" parent="WIyWlLk6GJQsqaUBKTNV-1">
          <mxGeometry y="75" width="120" height="80" as="geometry" />
        </mxCell>
        <mxCell id="W7C4MJzanJalnLyDJ3va-4" style="edgeStyle=orthogonalEdgeStyle;curved=0;rounded=1;sketch=0;orthogonalLoop=1;jettySize=auto;html=1;exitX=1;exitY=0.5;exitDx=0;exitDy=0;entryX=0;entryY=0.5;entryDx=0;entryDy=0;strokeColor=#DDA15E;fillColor=#BC6C25;fontColor=#FEFAE0;labelBackgroundColor=#283618;" edge="1" parent="WIyWlLk6GJQsqaUBKTNV-1" source="W7C4MJzanJalnLyDJ3va-1" target="W7C4MJzanJalnLyDJ3va-3">
          <mxGeometry relative="1" as="geometry" />
        </mxCell>
        <mxCell id="W7C4MJzanJalnLyDJ3va-1" value="&lt;font style=&quot;font-size: 18px&quot;&gt;Nhập:&lt;br&gt;Điểm toán&lt;br&gt;Điểm văn&lt;br&gt;Điểm lý&lt;/font&gt;" style="shape=parallelogram;perimeter=parallelogramPerimeter;whiteSpace=wrap;html=1;fixedSize=1;rounded=0;sketch=0;strokeColor=#DDA15E;fillColor=#BC6C25;fontColor=#FEFAE0;" vertex="1" parent="WIyWlLk6GJQsqaUBKTNV-1">
          <mxGeometry x="250" y="70" width="140" height="90" as="geometry" />
        </mxCell>
        <mxCell id="W7C4MJzanJalnLyDJ3va-5" style="edgeStyle=orthogonalEdgeStyle;curved=0;rounded=1;sketch=0;orthogonalLoop=1;jettySize=auto;html=1;exitX=0.5;exitY=1;exitDx=0;exitDy=0;strokeColor=#DDA15E;fillColor=#BC6C25;fontColor=#FEFAE0;labelBackgroundColor=#283618;" edge="1" parent="WIyWlLk6GJQsqaUBKTNV-1" source="W7C4MJzanJalnLyDJ3va-3">
          <mxGeometry relative="1" as="geometry">
            <mxPoint x="580" y="280" as="targetPoint" />
          </mxGeometry>
        </mxCell>
        <mxCell id="W7C4MJzanJalnLyDJ3va-3" value="&lt;font style=&quot;font-size: 18px&quot;&gt;Tổng&amp;lt;--Điểm toán +điểm văn +điểm lý&lt;/font&gt;" style="rounded=0;whiteSpace=wrap;html=1;sketch=0;strokeColor=#DDA15E;fillColor=#BC6C25;fontColor=#FEFAE0;" vertex="1" parent="WIyWlLk6GJQsqaUBKTNV-1">
          <mxGeometry x="510" y="77.5" width="140" height="75" as="geometry" />
        </mxCell>
        <mxCell id="W7C4MJzanJalnLyDJ3va-10" style="edgeStyle=orthogonalEdgeStyle;curved=0;rounded=1;sketch=0;orthogonalLoop=1;jettySize=auto;html=1;exitX=0;exitY=0.5;exitDx=0;exitDy=0;strokeColor=#DDA15E;fillColor=#BC6C25;fontColor=#FEFAE0;" edge="1" parent="WIyWlLk6GJQsqaUBKTNV-1" source="W7C4MJzanJalnLyDJ3va-6" target="W7C4MJzanJalnLyDJ3va-9">
          <mxGeometry relative="1" as="geometry" />
        </mxCell>
        <mxCell id="W7C4MJzanJalnLyDJ3va-6" value="&lt;font style=&quot;font-size: 18px&quot;&gt;Trung bình&amp;lt;--Tổng/3&lt;/font&gt;" style="rounded=0;whiteSpace=wrap;html=1;sketch=0;strokeColor=#DDA15E;fillColor=#BC6C25;fontColor=#FEFAE0;" vertex="1" parent="WIyWlLk6GJQsqaUBKTNV-1">
          <mxGeometry x="520" y="280" width="120" height="60" as="geometry" />
        </mxCell>
        <mxCell id="W7C4MJzanJalnLyDJ3va-8" value="&lt;font style=&quot;font-size: 24px&quot;&gt;End&lt;/font&gt;" style="ellipse;whiteSpace=wrap;html=1;fillColor=#BC6C25;strokeColor=#DDA15E;fontColor=#FEFAE0;" vertex="1" parent="WIyWlLk6GJQsqaUBKTNV-1">
          <mxGeometry x="100" y="400" width="120" height="80" as="geometry" />
        </mxCell>
        <mxCell id="W7C4MJzanJalnLyDJ3va-11" style="edgeStyle=orthogonalEdgeStyle;curved=0;rounded=1;sketch=0;orthogonalLoop=1;jettySize=auto;html=1;exitX=0;exitY=0.5;exitDx=0;exitDy=0;entryX=0.5;entryY=0;entryDx=0;entryDy=0;strokeColor=#DDA15E;fillColor=#BC6C25;fontColor=#FEFAE0;" edge="1" parent="WIyWlLk6GJQsqaUBKTNV-1" source="W7C4MJzanJalnLyDJ3va-9" target="W7C4MJzanJalnLyDJ3va-8">
          <mxGeometry relative="1" as="geometry" />
        </mxCell>
        <mxCell id="W7C4MJzanJalnLyDJ3va-9" value="Tổng&lt;br&gt;Trung bình" style="shape=parallelogram;perimeter=parallelogramPerimeter;whiteSpace=wrap;html=1;fixedSize=1;rounded=0;sketch=0;strokeColor=#DDA15E;fillColor=#BC6C25;fontColor=#FEFAE0;" vertex="1" parent="WIyWlLk6GJQsqaUBKTNV-1">
          <mxGeometry x="280" y="280" width="120" height="60" as="geometry" />
        </mxCell>
      </root>
    </mxGraphModel>
  </diagram>
</mxfile>
